<svg xmlns="http://www.w3.org/2000/svg" width="24" height="24" fill="currentColor"><path d="M19.14 12.94c.04-.3.06-.61.06-.94 0-.32-.02-.64-.06-.94l2.03-1.58a.996.996 0 0 0 .12-1.21l-1.92-3.32a.996.996 0 0 0-1.22-.43l-2.39.96c-.5-.38-1.03-.7-1.62-.94L13.78 2a1 1 0 0 0-.99-.88H8.95a1 1 0 0 0-.99.88L7.6 4.54c-.59.24-1.13.56-1.62.94l-2.39-.96a.996.996 0 0 0-1.22.43L.45 8.27c-.12.22-.07.47.12.61l2.03 1.58c-.04.3-.06.61-.06.94s.02.64.06.94L.57 13.92a.996.996 0 0 0-.12 1.21l1.92 3.32c.12.22.37.29.6.22l2.39-.96c.5.38 1.03.7 1.62.94l.36 2.54c.05.24.24.41.48.41h3.84c.24 0 .44-.17.5-.41l.36-2.54c.59-.24 1.13-.56 1.62-.94l2.39.96c.23.08.48 0 .6-.22l1.92-3.32c.12-.22.07-.47-.12-.61l-2.03-1.58zM12 15.6c-1.98 0-3.6-1.62-3.6-3.6s1.62-3.6 3.6-3.6 3.6 1.62 3.6 3.6-1.62 3.6-3.6 3.6"/></svg>