<?xml version="1.0" encoding="UTF-8"?>
<svg id="Layer_1" xmlns="http://www.w3.org/2000/svg" version="1.1" viewBox="0 0 24 24">
  <!-- Generator: Adobe Illustrator 30.0.0, SVG Export Plug-In . SVG Version: 2.1.1 Build 123)  -->
  <defs>
    <style>
      .st0 {
        fill: none;
        stroke: #000;
        stroke-linecap: round;
        stroke-linejoin: round;
        stroke-width: 2px;
      }
    </style>
  </defs>
  <path class="st0" d="M16,21v-2c0-2.2-1.8-4-4-4h-7c-2.2,0-4,1.8-4,4v2"/>
  <circle class="st0" cx="8.5" cy="7" r="4"/>
  <rect class="st0" x="15" y="6.6" width="7.9" height="6.8" rx="1" ry="1"/>
  <path class="st0" d="M17.2,6.6v-2c0-.6.8-1,1.8-1s1.8.4,1.8,1v2"/>
  <path d="M20.3,9h-.8s0,0-.1,0,0,0-.2-.1v.7c.5.1.8.3.9.4.2.2.3.4.3.7s0,.3-.1.5c0,.1-.2.3-.3.3s-.2.2-.4.2-.3,0-.5,0v.4h-.3v-.4c-.2,0-.4,0-.5-.1s-.3-.1-.4-.2-.2-.2-.2-.3,0-.2-.1-.4h.9s0,.2.1.2.1.1.2.2v-.8c-.3,0-.5-.2-.7-.2-.1,0-.2-.2-.3-.3,0-.1-.1-.3-.1-.5s0-.5.3-.7.5-.3.8-.3v-.2h.3v.2c.3,0,.6.1.8.2s.3.3.4.6ZM18.8,8.7c0,0-.2,0-.2.1s0,.1,0,.2,0,.1,0,.2c0,0,.1,0,.2.1v-.6ZM19.2,11c.1,0,.2,0,.3-.1,0,0,0-.1,0-.2s0-.1,0-.2c0,0-.1-.1-.3-.2v.7Z"/>
</svg>