<svg xmlns="http://www.w3.org/2000/svg" viewBox="0 0 24 24"><path d="M16 21v-2c0-2.2-1.8-4-4-4H5c-2.2 0-4 1.8-4 4v2"/><circle cx="8.5" cy="7" r="4"/><rect width="7.9" height="6.8" x="15" y="6.6" rx="1" ry="1"/><path d="M17.2 6.6v-2c0-.6.8-1 1.8-1s1.8.4 1.8 1v2M20.3 9h-.9c-.1 0 0 0-.2-.1v.7c.5.1.8.3.9.4.2.2.3.4.3.7s0 .3-.1.5c0 .1-.2.3-.3.3s-.2.2-.4.2h-.5v.4h-.3v-.4c-.2 0-.4 0-.5-.1s-.3-.1-.4-.2-.2-.2-.2-.3 0-.2-.1-.4h.9s0 .2.1.2.1.1.2.2v-.8c-.3 0-.5-.2-.7-.2-.1 0-.2-.2-.3-.3 0-.1-.1-.3-.1-.5s0-.5.3-.7.5-.3.8-.3v-.2h.3v.2c.3 0 .6.1.8.2s.3.3.4.6Zm-1.5-.3s-.2 0-.2.1v.4s.1 0 .2.1zm.4 2.3c.1 0 .2 0 .3-.1v-.4s-.1-.1-.3-.2z"/></svg>